PathFileType	4	(X/Y/Z)	37_2_9_p0_0-522.trc
DataRate	CameraRate	NumFrames	NumMarkers	Units	OrigDataRate	OrigDataStartFrame	OrigNumFrames
60.0	60.0	4	27	m	60.0	0	523
Frame#	Time	RHip			RKnee			RAnkle			RBigToe			RSmallToe			RHeel			LHip			LKnee			LAnkle			LBigToe			LSmallToe			LHeel			Neck			Head			Nose			RShoulder			RElbow			RWrist			RThumb			RIndex			RPinky			LShoulder			LElbow			LWrist			LThumb			LIndex			LPinky			
		X1	Y1	Z1	X2	Y2	Z2	X3	Y3	Z3	X4	Y4	Z4	X5	Y5	Z5	X6	Y6	Z6	X7	Y7	Z7	X8	Y8	Z8	X9	Y9	Z9	X10	Y10	Z10	X11	Y11	Z11	X12	Y12	Z12	X13	Y13	Z13	X14	Y14	Z14	X15	Y15	Z15	X16	Y16	Z16	X17	Y17	Z17	X18	Y18	Z18	X19	Y19	Z19	X20	Y20	Z20	X21	Y21	Z21	X22	Y22	Z22	X23	Y23	Z23	X24	Y24	Z24	X25	Y25	Z25	X26	Y26	Z26	X27	Y27	Z27	
0	0.0	0.38081765155240055	0.668898523511357	0.5244333739828057	0.34607086244638513	0.8265099885317675	0.960225224198417	0.39175222513580316	1.0419260600250293	1.3727163554144086	0.3349170656678484	0.8881821204968077	1.438189895792013	0.40332121403497745	0.8777571524608557	1.4322814935172226	0.3793462948548432	1.1638554799823448	1.4285624920771336	0.19551809957038152	0.7098817008528108	0.5009645195595027	0.1999924292916611	0.8267979112647947	0.9343161038514554	0.17882237325240538	1.0567389109243317	1.3612029954903775	0.1617033098162822	0.8731246206916808	1.4101931105183343	0.11170271065550626	0.9402409706098662	1.415016513454293	0.19775786347401925	1.1245606037485258	1.4222366374134578	0.28053037719925744	0.5204298788254988	-0.0340189627700811	0.25981019956015894	0.3577964934958192	-0.23408204678227826	0.25321514973400433	0.3405201451236424	-0.10874039536071341	0.43273804106082997	0.49522767138084606	0.08280812848453759	0.41966420914955566	0.5212907621922301	0.35624930003279814	0.29101072312658416	0.47261614015845205	0.5679892644315204	0.20606823589033577	0.5184273906150227	0.6511090285206331	0.21529029197330168	0.5441322951739862	0.6777838329992425	0.26031405490515075	0.5255263703621152	0.6804823831608077	0.12818079274409794	0.6128176415557357	0.03970178381869098	0.11949146745194049	0.5977697830803678	0.2971978946056431	0.17373015712231082	0.48668534173921596	0.5240302160435618	0.22999857930375825	0.5351620090547207	0.6399806655950224	0.21792768394257525	0.49183899534314945	0.6601922206753499	0.19895468826937707	0.4922739018659344	0.6577607850536709
1	0.016666666666666666	0.3806691319665465	0.6653975531719397	0.5202150884162534	0.34548822211675456	0.8262662515623221	0.9607570722419598	0.3917909739013775	1.041991630795024	1.3728305852490823	0.3347919792429364	0.8879619288202216	1.43839522624289	0.4031692814831777	0.8777488033620904	1.432523016898336	0.38190908664270196	1.1442208960976943	1.423371424779253	0.19538507311275743	0.709714049343498	0.5009713412393382	0.19626710881689002	0.8439329579449887	0.9407500688199154	0.18397194148915286	1.0633159915323118	1.371993487844213	0.1668862879206907	0.8746182881543954	1.4108825917832721	0.11539604993798233	0.9237283867444186	1.4102307755551122	0.19640332831833499	1.124717016201403	1.4269043740644933	0.2804794525830714	0.5206895454715703	-0.03378360498420419	0.25983142229368067	0.3580261034782833	-0.2340267105111245	0.2554257126976213	0.3614735588109008	-0.11294494726742743	0.4282609331597884	0.49316572992295843	0.07946961142754334	0.42508293711086004	0.5315914058451909	0.35240159516585	0.29117114642514597	0.47319191510409414	0.5679973039081869	0.20602998648061313	0.518670336187445	0.6469085511615009	0.21538125512055206	0.5437861471794104	0.6778409134378388	0.2606936769766051	0.5249431223390807	0.6801342137122012	0.1321721700331872	0.6118324102261394	0.03637321526990839	0.11952480707366006	0.5972873317771521	0.29731918229060234	0.17844380785341846	0.5012075250413696	0.5377822786620775	0.22029155038094453	0.5350182024912753	0.6367562052871765	0.21780106687491724	0.4922811723343177	0.6589570878337097	0.19858589886636754	0.49088885303632446	0.6534241250285769
2	0.03333333333333333	0.38070672953562124	0.6652758095969175	0.5202875743737504	0.34566362373901766	0.8260686284663052	0.9604878227065711	0.3917595587729422	1.0420578003573162	1.3727577735274914	0.3348950265860659	0.8880777848354483	1.4385498117860627	0.4035527952526202	0.8786113858561405	1.4327764057424197	0.37943946641559634	1.1644464234850163	1.428942107498651	0.1953835754265787	0.7096678888027066	0.5010512824559443	0.1961760779936259	0.8437885152780895	0.9407815784667019	0.1828527439343021	1.0596869272696774	1.3665879662334768	0.16698935526275552	0.8748997877001166	1.4109798024458344	0.11548503628055577	0.9238774147360771	1.4103148723530146	0.19656777569560152	1.1250157800383398	1.4268987985161499	0.2804524364621819	0.5203402249775175	-0.03389632453126047	0.2597449454842595	0.35780186626265775	-0.23406255370740692	0.2553966963769305	0.36141385380893853	-0.11301932381147495	0.42823489614298454	0.49303143335831984	0.07944492395491756	0.4215910516663106	0.5075381887642397	0.35313400956155966	0.291183948727639	0.4730064515032815	0.5680139483089999	0.20600029301664005	0.5181719027353608	0.6470337306003969	0.2153458662071126	0.543600139903702	0.677983980834424	0.2607421103217717	0.5252896780021807	0.6802094219640282	0.13250187647422024	0.6138577878224268	0.03966492278226146	0.11941557443175141	0.5976733102438974	0.29731241578509165	0.1730040850714482	0.48739288614995985	0.5277190477452658	0.22318849670994276	0.5208169607767381	0.6338997176110078	0.21775318898483492	0.49173991093989655	0.6591727883899403	0.1982774585942783	0.4912613813441288	0.651454879114596
3	0.05	0.3807488777654679	0.665135924156117	0.520393953250184	0.34305547229006617	0.810791954422746	0.9574536130539952	0.3918546866065422	1.041180296503269	1.3768043749054333	0.32950544863519854	0.8736932237398447	1.433922833830595	0.3975992953467233	0.8634170093577812	1.4280817477555274	0.37931148267952397	1.1642960631201695	1.428934491588879	0.19529040325219046	0.7094551728230564	0.5048432234018791	0.19922064189595354	0.8276418784955791	0.9383202035653837	0.1829076987384499	1.0602436396810222	1.3668461146598232	0.16691930132560864	0.8747825624377166	1.4108740251073624	0.11538502636864124	0.9235685040306001	1.4101324883794155	0.19793194122627336	1.124847276405702	1.4224739774177149	0.2807074970242198	0.5195128993668603	-0.036957870387416006	0.26216437306916807	0.37995645515360776	-0.23989830785885263	0.2576339049784136	0.350542992078753	-0.11093784444099268	0.42823630581962263	0.49263008453551094	0.079354433408383	0.4311401070051472	0.5186221412069258	0.35270509818987283	0.29127622623562527	0.47333233037849326	0.5679753747899579	0.20611329998982802	0.5187766558176231	0.6466903707679099	0.21514191055701995	0.5442113441795837	0.6735251845517101	0.2564172472654777	0.5250034601420862	0.6802272588035972	0.13210818196818466	0.6116013586200133	0.036412157887831496	0.11926714556036119	0.5988029268877888	0.2934627511255836	0.16907315664490855	0.4999101947187213	0.5203812590271815	0.21708810296379744	0.5340727180369322	0.6303736958650226	0.2151963051456313	0.49269127298690407	0.6582363013084286	0.19414495756770156	0.5035822262568399	0.651063048996171
